<svg width="130" height="22" viewBox="0 0 130 22" fill="none" xmlns="http://www.w3.org/2000/svg">
<path d="M92 21.36L94 17L110.5 16.86L112 21.36H92Z" fill="#DB0962"/>
<path d="M0 10.8C0 8.72 0.45 6.87 1.35 5.25C2.25 3.61 3.5 2.34 5.1 1.44C6.72 0.519999 8.55 0.0599992 10.59 0.0599992C13.09 0.0599992 15.23 0.719999 17.01 2.04C18.79 3.36 19.98 5.16 20.58 7.44H14.94C14.52 6.56 13.92 5.89 13.14 5.43C12.38 4.97 11.51 4.74 10.53 4.74C8.95 4.74 7.67 5.29 6.69 6.39C5.71 7.49 5.22 8.96 5.22 10.8C5.22 12.64 5.71 14.11 6.69 15.21C7.67 16.31 8.95 16.86 10.53 16.86C11.51 16.86 12.38 16.63 13.14 16.17C13.92 15.71 14.52 15.04 14.94 14.16H20.58C19.98 16.44 18.79 18.24 17.01 19.56C15.23 20.86 13.09 21.51 10.59 21.51C8.55 21.51 6.72 21.06 5.1 20.16C3.5 19.24 2.25 17.97 1.35 16.35C0.45 14.73 0 12.88 0 10.8Z" fill="white"/>
<path d="M34.4616 21.36L30.0816 13.41H28.8516V21.36H23.7216V0.3H32.3316C33.9916 0.3 35.4016 0.59 36.5616 1.17C37.7416 1.75 38.6216 2.55 39.2016 3.57C39.7816 4.57 40.0716 5.69 40.0716 6.93C40.0716 8.33 39.6716 9.58 38.8716 10.68C38.0916 11.78 36.9316 12.56 35.3916 13.02L40.2516 21.36H34.4616ZM28.8516 9.78H32.0316C32.9716 9.78 33.6716 9.55 34.1316 9.09C34.6116 8.63 34.8516 7.98 34.8516 7.14C34.8516 6.34 34.6116 5.71 34.1316 5.25C33.6716 4.79 32.9716 4.56 32.0316 4.56H28.8516V9.78Z" fill="white"/>
<path d="M53.2519 21.57C51.2719 21.57 49.4519 21.11 47.7919 20.19C46.1519 19.27 44.8419 17.99 43.8619 16.35C42.9019 14.69 42.4219 12.83 42.4219 10.77C42.4219 8.71 42.9019 6.86 43.8619 5.22C44.8419 3.58 46.1519 2.3 47.7919 1.38C49.4519 0.46 51.2719 0 53.2519 0C55.2319 0 57.0419 0.46 58.6819 1.38C60.3419 2.3 61.6419 3.58 62.5819 5.22C63.5419 6.86 64.0219 8.71 64.0219 10.77C64.0219 12.83 63.5419 14.69 62.5819 16.35C61.6219 17.99 60.3219 19.27 58.6819 20.19C57.0419 21.11 55.2319 21.57 53.2519 21.57ZM53.2519 16.89C54.9319 16.89 56.2719 16.33 57.2719 15.21C58.2919 14.09 58.8019 12.61 58.8019 10.77C58.8019 8.91 58.2919 7.43 57.2719 6.33C56.2719 5.21 54.9319 4.65 53.2519 4.65C51.5519 4.65 50.1919 5.2 49.1719 6.3C48.1719 7.4 47.6719 8.89 47.6719 10.77C47.6719 12.63 48.1719 14.12 49.1719 15.24C50.1919 16.34 51.5519 16.89 53.2519 16.89Z" fill="white"/>
<path d="M72.0059 0.3V21.36H66.8759V0.3H72.0059Z" fill="white"/>
<path d="M81.1835 17.16H90.2435V21.36H75.3635V17.46L84.3635 4.5H75.3635V0.3H90.2435V4.2L81.1835 17.16Z" fill="white"/>
<path d="M104.794 15.36H99.2942H96.7942H94.5L99.8346 0.3H105.775L110 15.36H107.294H104.794ZM104.794 12.36L102.775 5.97L100.794 12.36H104.794Z" fill="white"/>
<path d="M129.864 0.3V4.41H124.284V21.36H119.154V4.41H113.574V0.3H129.864Z" fill="white"/>
</svg>
